HIERARCHY
ROOT root
{
	OFFSET 0.000000 0.000000 0.000000
	CHANNELS 6 Xposition Yposition Zposition Zrotation Yrotation Xrotation
	JOINT lhip
	{
		OFFSET 0.058581 -0.082280 -0.017664
		CHANNELS 3 Zrotation Yrotation Xrotation
		JOINT lknee
		{
			OFFSET 0.043451 -0.386469 0.008037
			CHANNELS 3 Zrotation Yrotation Xrotation
			JOINT lankle
			{
				OFFSET -0.014790 -0.426874 -0.037428
				CHANNELS 3 Zrotation Yrotation Xrotation
				JOINT ltoe
				{
					OFFSET 0.041054 -0.060286 0.122042
					CHANNELS 3 Zrotation Yrotation Xrotation
					End Site
					{
						OFFSET 0.000000 0.000000 0.000000
					}
				}
			}
		}
	}
	JOINT rhip
	{
		OFFSET -0.060310 -0.090513 -0.013543
		CHANNELS 3 Zrotation Yrotation Xrotation
		JOINT rknee
		{
			OFFSET -0.043257 -0.383688 -0.004843
			CHANNELS 3 Zrotation Yrotation Xrotation
			JOINT rankle
			{
				OFFSET 0.019056 -0.420046 -0.034562
				CHANNELS 3 Zrotation Yrotation Xrotation
				JOINT rtoe
				{
					OFFSET -0.034840 -0.062106 0.130323
					CHANNELS 3 Zrotation Yrotation Xrotation
					End Site
					{
						OFFSET 0.000000 0.000000 0.000000
					}
				}
			}
		}
	}
	JOINT lowerback
	{
		OFFSET 0.004439 0.124404 -0.038385
		CHANNELS 3 Zrotation Yrotation Xrotation
		JOINT upperback
		{
			OFFSET 0.004488 0.137956 0.026820
			CHANNELS 3 Zrotation Yrotation Xrotation
			JOINT chest
			{
				OFFSET -0.002265 0.056032 0.002855
				CHANNELS 3 Zrotation Yrotation Xrotation
				JOINT lowerneck
				{
					OFFSET -0.013390 0.211636 -0.033468
					CHANNELS 3 Zrotation Yrotation Xrotation
					JOINT upperneck
					{
						OFFSET 0.010113 0.088937 0.050410
						CHANNELS 3 Zrotation Yrotation Xrotation
						End Site
						{
							OFFSET 0.000000 0.000000 0.000000
						}
					}
				}
				JOINT lclavicle
				{
					OFFSET 0.071702 0.114000 -0.018898
					CHANNELS 3 Zrotation Yrotation Xrotation
					JOINT lshoulder
					{
						OFFSET 0.122921 0.045205 -0.019046
						CHANNELS 3 Zrotation Yrotation Xrotation
						JOINT lelbow
						{
							OFFSET 0.255332 -0.015649 -0.022946
							CHANNELS 3 Zrotation Yrotation Xrotation
							JOINT lwrist
							{
								OFFSET 0.265709 0.012698 -0.007375
								CHANNELS 3 Zrotation Yrotation Xrotation
								End Site
								{
									OFFSET 0.000000 0.000000 0.000000
								}
							}
						}
					}
				}
				JOINT rclavicle
				{
					OFFSET -0.082954 0.112472 -0.023707
					CHANNELS 3 Zrotation Yrotation Xrotation
					JOINT rshoulder
					{
						OFFSET -0.113228 0.046853 -0.008472
						CHANNELS 3 Zrotation Yrotation Xrotation
						JOINT relbow
						{
							OFFSET -0.260127 -0.014369 -0.031269
							CHANNELS 3 Zrotation Yrotation Xrotation
							JOINT rwrist
							{
								OFFSET -0.269108 0.006794 -0.006027
								CHANNELS 3 Zrotation Yrotation Xrotation
								End Site
								{
									OFFSET 0.000000 0.000000 0.000000
								}
							}
						}
					}
				}
			}
		}
	}
}
MOTION
Frames: 14
Frame Time: 0.033333
1.159543 0.191435 1.001206 -96.532960 9.674270 83.372784 7.261010 1.390667 5.242255 -3.049733 -14.043155 11.549005 5.473049 12.107757 -20.008003 0.000000 -0.000000 0.000000 -0.175963 -0.316886 -7.598986 1.485332 -7.710972 27.685468 5.399816 -11.515855 -13.862347 0.000000 -0.000000 0.000000 -5.732087 -0.744930 13.907946 3.011230 -3.648858 5.203728 1.318915 -4.158820 6.389763 7.344207 -13.965119 12.177892 1.365801 -16.739569 14.154235 -22.365943 8.198359 6.139506 -53.071811 -9.334128 3.768576 11.717778 -31.050564 -0.544379 -2.107451 0.782475 -10.618162 23.842500 -3.918736 -0.369803 62.615601 0.648082 11.023544 -13.630002 31.139838 -3.447202 5.310344 -0.675699 -7.013833 
1.157109 0.196912 1.001060 -96.533656 10.650148 83.506552 8.646863 1.362143 4.711793 -3.181942 -14.293745 12.699969 5.540409 12.248848 -20.908589 0.000000 -0.000000 0.000000 -1.985473 -1.095619 -8.344339 1.533938 -6.734574 26.275086 5.690738 -10.833928 -12.260819 0.000000 -0.000000 0.000000 -5.737805 -0.481916 13.554621 3.215646 -3.629764 5.225683 1.454807 -4.110091 6.304737 7.350439 -14.154502 12.368534 1.531302 -16.962276 14.465221 -22.028954 8.488095 6.203027 -52.405874 -9.516909 3.675225 11.278699 -31.323392 0.031193 -2.070668 0.412666 -10.855616 23.929368 -4.293729 -0.214311 62.283611 0.759487 10.871795 -13.522471 30.481249 -3.485923 5.071681 -0.625347 -6.662093 
1.154067 0.202966 1.001000 -96.452033 11.559993 83.471489 9.931843 1.366780 4.321860 -3.220282 -14.456322 14.018955 5.573830 12.319247 -21.738288 0.000000 -0.000000 0.000000 -3.950795 -1.474859 -8.547036 1.830535 -5.441019 23.950386 5.996298 -9.976823 -8.885381 0.000000 -0.000000 0.000000 -5.826244 -0.210003 13.340457 3.375635 -3.652312 5.310406 1.666150 -4.061365 6.312078 7.403383 -14.606381 12.427140 1.892245 -17.025084 14.398967 -21.732956 8.721519 6.497570 -51.749392 -9.699110 3.564390 11.079157 -31.929270 0.275667 -2.018881 0.532832 -11.111393 24.151608 -4.602899 -0.100922 61.765223 0.914863 10.651022 -13.396323 30.055524 -4.075358 5.057707 -1.171746 -6.554737 
1.149794 0.210002 1.000884 -96.225754 12.530613 83.151632 11.464151 1.329709 4.374987 -3.353129 -14.739509 15.201737 5.516841 12.228315 -22.381741 0.000000 -0.000000 0.000000 -6.076430 -1.878603 -7.799946 2.228774 -4.647093 20.576271 6.502288 -9.062710 -4.334728 0.000000 -0.000000 0.000000 -5.810487 0.178586 13.419964 3.533621 -3.644742 5.413519 1.927388 -4.150409 6.013911 7.184712 -15.147289 12.982304 2.348491 -16.955365 14.371085 -21.625850 8.973469 6.894447 -50.855557 -9.845623 3.232878 10.814621 -32.417035 0.543256 -2.142264 0.389958 -11.323127 24.422048 -4.938902 0.148604 61.209379 0.786039 10.544640 -13.274235 29.522250 -4.086830 4.751063 -1.204256 -5.873181 
1.145736 0.217491 1.000240 -95.710250 13.369611 83.123948 12.778999 1.213664 4.004814 -3.403062 -15.029567 16.505079 5.398540 12.247454 -23.215244 0.000000 -0.000000 0.000000 -8.190898 -2.925561 -7.617835 2.483997 -3.826776 17.739211 7.466771 -8.660586 -0.903421 0.000000 -0.000000 0.000000 -6.000133 0.553643 13.049172 3.703149 -3.834164 5.564676 2.209694 -4.374179 6.067001 7.212714 -15.447918 12.976916 2.590293 -16.909414 14.621729 -21.252818 9.297574 7.088572 -50.184798 -10.244063 2.992118 10.588134 -32.707898 0.690241 -1.793366 0.178208 -11.544893 24.562451 -5.496716 0.131685 60.865375 0.916594 10.504096 -13.013536 29.144621 -4.211273 4.449101 -0.964237 -5.623403 
1.141432 0.226648 0.999767 -95.283996 14.362791 82.874768 14.530238 1.277344 3.969762 -3.547070 -15.362213 17.734496 5.100856 11.976174 -24.216120 0.000000 -0.000000 0.000000 -9.840035 -4.013749 -7.119041 2.694725 -2.960846 15.012416 8.114333 -7.892497 1.543075 0.000000 -0.000000 0.000000 -6.128280 0.844554 12.709370 3.840208 -4.097036 6.176968 2.450311 -4.323130 5.938867 7.340451 -15.529470 13.017726 2.931074 -16.945711 14.599343 -20.782145 9.290856 7.341803 -49.309856 -10.414756 2.642714 10.360869 -33.177413 1.059313 -1.662393 -0.125217 -11.802481 24.732480 -5.849551 0.141279 60.764729 0.889842 10.263428 -12.858802 29.062418 -4.039815 4.265430 -1.105947 -5.380867 
1.136238 0.236399 0.999123 -94.846068 15.228241 82.738063 16.092283 1.127077 4.021839 -3.593296 -15.826177 18.669472 4.841863 12.029678 -25.031650 0.000000 -0.000000 0.000000 -11.500644 -4.648618 -6.764666 2.986427 -2.448953 12.864173 8.553084 -7.448262 3.861683 0.000000 -0.000000 0.000000 -6.254793 1.181257 12.833607 3.990087 -4.077419 5.690201 2.665404 -4.659649 5.705398 7.251747 -15.828553 13.609451 3.047099 -16.912280 14.922519 -20.448889 9.700879 7.790543 -48.284602 -10.422625 2.360557 9.943976 -33.899466 1.587589 -1.563350 -0.119611 -12.021883 24.892179 -6.548449 0.220507 60.475511 0.548673 10.072237 -12.504789 29.024043 -3.865657 4.087291 -1.175620 -5.184866 
1.131014 0.247544 0.998685 -94.418063 16.053416 82.217189 17.689789 1.206419 4.515798 -3.774385 -17.221291 19.671633 2.430351 12.402450 -27.036205 0.000000 -0.000000 0.000000 -12.733212 -5.386272 -6.334222 2.691862 -2.585178 11.707294 9.791831 -7.595418 6.163858 0.000000 -0.000000 0.000000 -6.642726 1.700689 12.427296 4.787474 -4.933262 7.305537 2.226912 -4.183813 5.068384 8.277619 -13.911418 13.522100 4.197675 -18.893695 14.158928 -19.797560 9.641253 7.318476 -46.667703 -10.550946 2.581474 7.631561 -33.993917 2.976258 3.791917 -1.747748 -13.990642 25.361828 -6.911807 -0.120558 60.971158 0.454958 10.410370 -13.323292 28.664169 -4.276774 0.702903 0.083932 -4.376789 
1.125544 0.259978 0.997603 -93.842835 16.730019 82.174184 19.356942 1.332015 4.618697 -3.868598 -17.749647 20.307515 2.153573 12.139179 -27.590536 0.000000 -0.000000 0.000000 -13.952442 -6.273414 -6.444835 2.762449 -2.192048 11.081695 10.494678 -7.610456 8.734499 0.000000 -0.000000 0.000000 -7.175876 1.928142 11.757266 5.003494 -5.245363 7.842073 2.318611 -4.321390 5.016165 8.482139 -13.796059 14.163421 4.589272 -19.103980 14.045856 -19.467318 9.743713 7.606967 -45.284432 -10.795223 2.223272 7.158967 -34.468027 3.297777 4.008610 -1.770687 -14.178443 25.413650 -7.373288 -0.232645 61.159725 0.496351 10.381227 -13.249419 28.104173 -4.317028 0.993525 0.047102 -4.572997 
1.119659 0.272844 0.996277 -93.016062 17.237211 81.947371 20.826348 1.198936 4.893495 -3.999370 -18.636268 20.914801 1.790304 12.254305 -28.258500 0.000000 -0.000000 0.000000 -15.296022 -6.935616 -6.023379 3.090567 -2.167351 10.416382 11.469792 -7.649039 11.239086 0.000000 -0.000000 0.000000 -7.711649 2.023921 11.947870 5.038781 -5.621218 7.826672 2.439472 -4.543543 4.828080 8.645920 -13.711101 14.495644 4.818848 -19.092862 14.361745 -19.117924 9.812813 8.074643 -43.815967 -10.764318 1.663062 6.597535 -35.250153 3.690221 3.896844 -1.667008 -13.687646 25.564982 -7.754678 -0.283862 61.089100 0.068895 10.113264 -12.986180 28.208276 -4.390574 1.194732 -0.024086 -4.274208 
1.114035 0.287242 0.994504 -92.269316 17.772220 81.923816 22.429471 1.067633 5.010188 -4.010872 -19.358828 21.393060 1.466251 12.229797 -28.538131 0.000000 -0.000000 0.000000 -16.083526 -7.513566 -5.965335 3.272808 -1.891569 10.194035 11.786766 -7.736639 12.391390 0.000000 -0.000000 0.000000 -8.231303 2.105969 11.772710 5.129583 -5.866790 7.937079 2.606929 -4.647712 4.705238 8.718996 -13.702108 14.868606 5.054692 -19.304589 14.573771 -18.705309 9.666716 8.327069 -42.594568 -10.962618 1.228410 6.013521 -35.607963 4.250560 4.143483 -1.935281 -13.672453 25.575182 -8.079191 -0.104902 60.994729 -0.357353 9.788581 -12.779256 28.212376 -4.246256 1.257543 0.092878 -4.253235 
1.107945 0.302629 0.992301 -91.430206 18.216742 81.726092 24.018878 0.855363 5.307961 -4.158385 -20.402563 21.866111 1.009175 12.072988 -28.901328 0.000000 -0.000000 0.000000 -16.744901 -8.122370 -5.536183 3.467408 -1.754321 9.850492 12.133525 -7.838500 13.322425 0.000000 -0.000000 0.000000 -8.706073 2.235630 11.618129 5.214659 -6.253203 8.651995 2.730955 -4.826256 4.547371 8.759401 -13.400569 15.104161 5.332632 -19.288508 14.531861 -18.257943 9.418028 8.457606 -41.650179 -11.281474 0.826273 5.836428 -35.872227 4.350523 4.031400 -1.811909 -13.965994 25.471251 -8.353808 -0.233105 61.016536 -0.875401 9.525072 -12.672315 28.258591 -4.155886 1.640338 -0.121314 -4.499242 
1.098645 0.319869 0.989049 -90.266454 18.254475 82.405065 25.400031 0.852762 5.107375 -4.055669 -20.844138 21.848096 0.754828 11.527982 -29.242795 0.000000 -0.000000 0.000000 -17.644151 -9.344114 -5.246130 3.811230 -2.069650 9.018763 12.693835 -7.715780 14.432396 0.000000 -0.000000 0.000000 -9.498130 2.578859 10.072077 5.185473 -7.085553 9.022915 2.755300 -5.102622 4.713410 8.823954 -13.265458 16.126259 5.746586 -19.293577 14.539666 -17.867164 9.568241 8.814054 -40.606694 -11.781856 0.649453 5.531459 -35.965836 4.468106 3.975274 -1.894593 -14.142207 25.582261 -9.134051 0.149827 60.810543 -1.467166 9.399151 -12.524535 28.359564 -3.662300 1.948651 -0.286731 -4.578029 
1.094396 0.337521 0.986191 -90.178632 18.346787 82.038141 26.791444 0.672206 5.717985 -4.084830 -21.368541 21.990277 0.255366 11.774380 -29.637974 0.000000 -0.000000 0.000000 -17.871350 -9.059478 -5.258435 3.896522 -2.089991 8.814240 13.411168 -8.265080 15.704952 0.000000 -0.000000 0.000000 -9.944319 2.363121 11.461665 5.015108 -6.570384 7.988769 2.923232 -5.112206 4.426339 8.612438 -12.839775 16.291328 5.997267 -18.933055 14.698424 -17.649733 9.645939 8.890422 -39.615107 -11.711797 0.007988 5.190753 -36.789946 4.379622 4.027415 -2.084627 -14.127576 25.427571 -9.421693 0.175932 60.825203 -2.618147 9.170359 -12.558290 28.681411 -4.099052 1.772951 -0.258411 -4.232307 
